<svg width="920" height="560" viewBox="0 0 920 560" fill="none" xmlns="http://www.w3.org/2000/svg">
  <rect width="920" height="560" rx="28" fill="#0A1020"/>
  <circle cx="140" cy="480" r="210" fill="#4E7DFF" fill-opacity="0.14"/>
  <circle cx="760" cy="80" r="180" fill="#3EDFB8" fill-opacity="0.12"/>
  <rect x="92" y="74" width="736" height="412" rx="24" fill="#0F1A33" stroke="#3E5A90" stroke-opacity="0.5"/>
  <rect x="128" y="116" width="280" height="332" rx="18" fill="#0C1529" stroke="#3E5A90" stroke-opacity="0.55"/>
  <rect x="440" y="116" width="352" height="112" rx="14" fill="#0C1529" stroke="#3E5A90" stroke-opacity="0.55"/>
  <rect x="440" y="244" width="352" height="204" rx="14" fill="#0C1529" stroke="#3E5A90" stroke-opacity="0.55"/>

  <rect x="156" y="150" width="120" height="120" rx="20" fill="#16274B" stroke="#5A7FC1"/>
  <path d="M215 182L182 214h22l-5 40 34-42h-22l4-30z" fill="#56F0CA"/>
  <rect x="156" y="290" width="224" height="18" rx="8" fill="#2B436D"/>
  <rect x="156" y="320" width="198" height="12" rx="6" fill="#21385D"/>
  <rect x="156" y="342" width="152" height="12" rx="6" fill="#21385D"/>

  <rect x="468" y="148" width="214" height="16" rx="8" fill="#56F0CA"/>
  <rect x="468" y="178" width="298" height="12" rx="6" fill="#2B436D"/>

  <rect x="468" y="276" width="296" height="38" rx="12" fill="#14213F" stroke="#496AAB"/>
  <rect x="468" y="326" width="296" height="38" rx="12" fill="#14213F" stroke="#496AAB"/>
  <rect x="468" y="376" width="296" height="38" rx="12" fill="#14213F" stroke="#496AAB"/>

  <circle cx="492" cy="295" r="8" fill="#56F0CA"/>
  <circle cx="492" cy="345" r="8" fill="#4E7DFF"/>
  <circle cx="492" cy="395" r="8" fill="#F59E0B"/>
</svg>
